<?xml version="1.0" encoding="UTF-8" standalone="no"?>
<svg
   xmlns:dc="http://purl.org/dc/elements/1.1/"
   xmlns:cc="http://creativecommons.org/ns#"
   xmlns:rdf="http://www.w3.org/1999/02/22-rdf-syntax-ns#"
   xmlns:svg="http://www.w3.org/2000/svg"
   xmlns="http://www.w3.org/2000/svg"
   xmlns:sodipodi="http://sodipodi.sourceforge.net/DTD/sodipodi-0.dtd"
   xmlns:inkscape="http://www.inkscape.org/namespaces/inkscape"
   id="svg8"
   version="1.1"
   viewBox="0 0 1.119518 0.76587057"
   height="36.761787"
   width="143.29831"
   sodipodi:docname="brologo.svg"
   inkscape:version="0.92.5 (2060ec1f9f, 2020-04-08)">
  <sodipodi:namedview
     pagecolor="#ffffff"
     bordercolor="#666666"
     borderopacity="1"
     objecttolerance="10"
     gridtolerance="10"
     guidetolerance="10"
     inkscape:pageopacity="0"
     inkscape:pageshadow="2"
     inkscape:window-width="1366"
     inkscape:window-height="703"
     id="namedview8"
     showgrid="false"
     inkscape:zoom="1.9888583"
     inkscape:cx="64.040173"
     inkscape:cy="22.386916"
     inkscape:window-x="0"
     inkscape:window-y="0"
     inkscape:window-maximized="1"
     inkscape:current-layer="svg8" />
  <defs
     id="defs2" />
  <metadata
     id="metadata5">
    <rdf:RDF>
      <cc:Work
         rdf:about="">
        <dc:format>image/svg+xml</dc:format>
        <dc:type
           rdf:resource="http://purl.org/dc/dcmitype/StillImage" />
        <dc:title />
      </cc:Work>
    </rdf:RDF>
  </metadata>
  <g
     transform="matrix(1.117647,0,0,1.2786492,0.00236902,-363.54568)"
     id="layer1">
    <path
       id="path4524"
       transform="matrix(0.02083333,0,0,0.02083333,-0.83472827,284.29553)"
       d="m 4.4199219,2.6582031 c -0.378528,0 -0.733446,0.1436406 -1.0410157,0.4316407 -0.28392,0.24 -0.4964949,0.5178468 -0.6621093,0.8730468 C 2.5748609,4.3468906 2.4577108,4.7218 2.3867188,5.125 c -0.023659,0.192 -0.048828,0.3834437 -0.048828,0.5898438 0,0.24 0.024933,0.4311468 0.072266,0.6855468 0.2365921,1.0416 0.8266683,1.82565 1.6074219,2.53125 0.094656,0.048 0.1425781,0.1422813 0.1425781,0.2382813 V 9.21875 l -0.1894531,0.945312 c -0.189264,1.113601 -0.3543362,2.199463 -0.4726562,3.289063 -0.047318,0.6624 -0.1191407,1.396459 -0.1191407,2.130859 0,1.3968 0.1906051,2.83701 0.9003907,3.97461 0.141936,0.24 0.3532757,0.384237 0.5898437,0.523437 0.141936,0.048 0.2855719,0.0957 0.4511719,0.0957 0.307584,0 0.6134608,-0.14364 0.8027344,-0.43164 0.094656,-0.144 0.1672892,-0.337131 0.2382812,-0.519532 0.212928,-0.6624 0.3775569,-1.348193 0.5195313,-2.058593 0.141936,-0.8976 0.1885471,-1.801056 0.2832031,-2.722657 0.118272,-1.1568 0.1902737,-2.316915 0.3085937,-3.478515 0.1656001,-1.3248001 0.4736383,-2.6026689 0.9941407,-3.8554689 0.331248,-0.7344 0.7334038,-1.4450218 1.2539062,-2.1074219 0.189264,-0.24 0.4248433,-0.4788812 0.7324223,-0.6132812 0.07099,-0.04752 0.118688,-0.048828 0.166016,-0.048828 0.118272,0 0.188773,0.049359 0.259765,0.1933593 0.141936,0.2880001 0.212891,0.6860813 0.212891,1.1132813 0,1.536 -0.780458,3.7151187 -1.4902349,4.6367184 -0.307584,0.384 -0.6390309,0.80691 -1.0175781,1.16211 -0.331248,0.288 -0.4969384,0.661253 -0.6152344,1.064453 -0.023659,0.096 -0.046875,0.193062 -0.046875,0.289062 0,0.48 0.3545216,0.848485 0.875,0.896485 h 0.1191406 c 0.11832,0 0.2354221,-0.02288 0.3300782,-0.04687 1.1119826,-0.24 1.0410686,-1.041016 1.8691406,-1.041016 h 0.07227 c 0.354912,0 0.450059,0.04681 0.568359,0.382813 0.09466,0.288 0.140625,0.639503 0.140625,0.970703 v 0.191406 c -0.02366,1.0896 -0.09371,2.174634 -0.30664,3.240234 -0.02366,0.192 -0.09567,0.287938 -0.308594,0.335938 -1.4668708,0.4992 -2.8851311,1.136428 -4.3046879,1.798828 -0.5678208,0.288 -1.1357476,0.591503 -1.65625,0.970703 -0.709776,0.5424 -1.3258658,1.180491 -1.7753906,1.962891 -0.260256,0.432 -0.3789063,0.922675 -0.3789063,1.421875 0,0.24 0.024933,0.478584 0.072266,0.708984 0.2602561,1.0656 0.8029669,1.915987 1.8203126,2.367188 0.6387984,0.288 1.2537797,0.43164 1.8925781,0.43164 v -0.0039 c 0.5678208,0 1.1606948,-0.145594 1.7285156,-0.433594 1.2302784,-0.6144 2.2242615,-1.511103 2.8867185,-2.720703 0.615139,-1.0896 1.134903,-2.222603 1.53711,-3.408203 0.354912,-0.9696 0.591976,-1.939431 0.78125,-2.957031 0.02366,-0.096 0.04773,-0.192235 0.166015,-0.240235 0.851731,-0.288 2.151954,-0.661847 3.027344,-0.873047 l 0.119141,-0.01758 c 0.211254,0.02938 0.424896,0.04883 0.638672,0.04883 1.277596,0 2.175348,-0.540984 3.263671,-0.708984 0.118272,-0.02352 0.260635,-0.04883 0.378907,-0.04883 l 0.142578,0.02344 c 0,0.096 -0.04837,0.193063 -0.0957,0.289063 -0.378528,1.0176 -1.063482,1.986869 -1.583985,2.980469 -0.757094,1.4448 -1.5625,2.885543 -1.5625,4.402343 0,0.9456 0.284332,1.798866 1.207032,2.197266 0.260256,0.096 0.544214,0.144531 0.828124,0.144531 v 0.04297 c 0.638799,0 1.253601,-0.28685 1.703126,-0.78125 1.348574,-1.608 2.673131,-3.951211 3.998046,-5.962891 0.214444,-0.29887 0.431098,-0.596079 0.648438,-0.892578 -0.246777,0.910105 -0.375135,1.842606 -0.386719,2.78125 0,1.4448 0.187723,2.768116 1.205078,3.478516 0.354864,0.24 0.828886,0.43164 1.373047,0.43164 v -0.04687 c 1.821759,0 2.839981,-2.577953 3.242188,-4.945313 0.09466,-0.6144 0.09357,-1.228787 0.117187,-1.867187 0.07099,-0.662401 -0.04646,-0.61441 1.160156,-0.84961 0.699577,-0.141931 1.375688,-0.378586 2.029297,-0.628906 -0.119679,1.230887 -0.208984,2.452908 -0.208984,3.613281 0,1.3008 0.072,2.178575 0.308594,3.359375 0.260251,1.1376 0.804434,2.487491 2.082031,2.837891 0.260251,0.048 0.520999,0.0957 0.78125,0.0957 v -0.07813 c 1.301256,0 2.246146,-1.017822 3.074219,-2.107422 1.324916,-1.8 2.555278,-3.455958 3.951172,-5.205078 0.483824,-0.620503 0.932156,-1.2934 1.478515,-1.888672 -0.06267,0.606106 -0.105469,1.211444 -0.105469,1.806641 0,1.56 0.236878,3.925787 1.845704,4.492187 0.402192,0.144 0.519225,0.144531 0.96875,0.144531 0.686116,0 1.254265,-0.239681 1.632812,-1.113281 0.544162,-1.1376 0.686571,-2.415731 0.994141,-3.644531 0.354912,-1.512 0.922772,-2.792384 1.86914,-3.833984 0.07099,-0.048 0.118736,-0.0957 0.166016,-0.0957 0.04732,0 0.04687,0.04658 0.04687,0.142578 -0.07099,1.228801 -0.189189,1.849325 -0.425781,3.078126 -0.307584,1.4688 -0.708985,3.100421 -0.708985,4.732421 0,1.776 0.685917,3.878907 2.105469,3.878907 v 0.01563 c 0.331248,0 0.684618,-0.144766 0.992187,-0.384766 0.784036,-0.607342 1.965837,-3.648165 2.863282,-5.955078 0.0423,0.498269 0.122542,0.993964 0.332031,1.474609 0.425856,0.9216 1.134597,1.419922 1.986328,1.419922 l 0.07227,-0.0098 c 0.638798,0 1.087584,-0.09511 1.537109,-0.287109 1.869077,-0.7584 5.182274,-4.63813 6.365234,-6.53125 0.0056,-0.0113 0.0066,-0.01145 0.01172,-0.02148 0.114293,0.0081 0.22741,0.02539 0.341797,0.02539 1.277597,0 2.177302,-0.540984 3.265625,-0.708984 0.118272,-0.02352 0.260634,-0.04883 0.378906,-0.04883 l 0.140625,0.02344 c 0,0.096 -0.04641,0.193063 -0.09375,0.289063 -0.378528,1.0176 -1.065435,1.986869 -1.585937,2.980469 -0.757095,1.4448 -1.560547,2.885543 -1.560547,4.402343 0,0.9456 0.284332,1.798866 1.207031,2.197266 0.260256,0.096 0.544215,0.144531 0.828125,0.144531 v 0.04297 c 0.638799,0 1.2536,-0.28685 1.703125,-0.78125 1.348575,-1.608 2.673132,-3.951211 3.998047,-5.962891 0.448403,-0.624941 0.904027,-1.24315 1.378906,-1.853515 -0.05889,0.586469 -0.101562,1.171983 -0.101562,1.748047 0,1.56 0.236877,3.925787 1.845703,4.492187 0.402192,0.144 0.519225,0.144531 0.96875,0.144531 0.686117,0 1.254265,-0.239681 1.632813,-1.113281 0.544161,-1.1376 0.686571,-2.415731 0.99414,-3.644531 0.354912,-1.512 0.922773,-2.792384 1.869141,-3.833984 0.07099,-0.048 0.118735,-0.0957 0.166015,-0.0957 0.04732,0 0.04687,0.04658 0.04687,0.142578 -0.07099,1.228801 -0.189189,1.849325 -0.425781,3.078126 -0.307584,1.4688 -0.708984,3.100421 -0.708984,4.732421 0,1.776 0.685916,3.878907 2.105468,3.878907 v 0.01563 c 0.331249,0 0.686572,-0.144766 0.994141,-0.384766 0.746281,-0.578085 1.847371,-3.353488 2.738281,-5.640625 -0.0024,0.07447 -0.01666,0.148094 -0.01758,0.222656 0,1.4448 0.187574,2.768116 1.205078,3.478516 0.35472,0.24 0.828871,0.43164 1.373047,0.43164 v -0.04687 c 1.821744,0 2.839996,-2.577953 3.242188,-4.945313 0.09456,-0.6144 0.09367,-1.228787 0.117187,-1.867187 0.07104,-0.662401 -0.04646,-0.61441 1.160156,-0.84961 0.587524,-0.119197 1.15389,-0.3092 1.708987,-0.513672 -0.609478,1.380534 -0.911502,2.839012 -0.92969,4.3125 0,1.4448 0.189528,2.768116 1.20703,3.478516 0.35472,0.24 0.82887,0.43164 1.37305,0.43164 v -0.04687 c 1.82174,0 2.83804,-2.577953 3.24023,-4.945313 0.0946,-0.6144 0.0956,-1.228787 0.11914,-1.867187 0.071,-0.662401 -0.0484,-0.61441 1.15821,-0.84961 0.55835,-0.113279 1.09789,-0.292004 1.62695,-0.484375 -0.51759,1.048291 -0.8457,2.179229 -0.8457,3.304688 0,0.7344 0.14259,1.583659 0.56835,2.130859 0.37873,0.48 0.94584,0.734375 1.51368,0.734375 1.18296,0 1.98771,-1.090384 2.67382,-2.083984 1.51421,-2.2464 0.75665,-1.22705 2.3418,-3.40625 0.0473,-0.04752 0.0721,-0.09766 0.11914,-0.09766 h 0.0234 v 0.144532 c -0.1656,0.9936 -0.25977,1.988259 -0.25977,3.005859 0,2.3664 0.61522,5.039063 2.69727,5.039063 v 0.01172 c 1.3249,0 2.41301,-1.016993 3.35938,-2.058594 2.17665,-2.4144 0.99218,-1.113806 3.2871,-3.691406 0.89904,-1.0656 1.72728,-2.058872 2.48438,-3.263672 0.071,-0.096 0.14258,-0.239937 0.14258,-0.335937 0,-0.096 -0.11777,-0.240235 -0.23633,-0.240235 -0.14208,0 -0.19003,0.04936 -0.30859,0.19336 -0.87538,1.1856 -1.77348,2.177481 -2.81446,3.238281 -0.85171,0.8976 -1.70425,1.775963 -2.62695,2.601563 -0.68611,0.6384 -1.65624,1.326172 -2.69727,1.326172 -0.56784,-0.02352 -0.59071,-0.289366 -0.70898,-0.759766 -0.18912,-0.6144 -0.23633,-1.228788 -0.23633,-1.867188 0,-1.608 0.23693,-3.190496 0.5918,-4.779296 0.0473,-0.144001 0.11777,-0.192235 0.23633,-0.240235 2.05833,-0.9936 4.1644,-2.674609 5.58398,-4.474609 1.13563,-1.5120002 2.0332,-3.124572 2.0332,-4.826172 0,-1.1616 -0.44982,-2.6738281 -1.86914,-2.6738281 -1.89273,0 -3.97349,2.2708749 -5.13281,4.046875 -1.37222,2.0832001 -1.96382,3.7640101 -2.69727,5.9628901 -0.61512,-0.8304 -1.13562,-1.091268 -2.29492,-1.230468 -0.87537,0.048 -1.49162,0.3374 -2.17773,0.875 -0.89951,0.70104 -1.72847,1.647832 -2.36914,2.71289 l -2.14844,0.464844 c -0.1656,0.024 -0.3324,0.04883 -0.49805,0.04883 -0.30768,0 -0.56772,-0.09713 -0.63867,-0.519531 -0.0946,-0.4944 -0.1881,-1.161284 -0.73242,-1.396484 -0.0473,-0.024 -0.0957,-0.04722 -0.0957,-0.0957 -0.071,-0.6144 -0.6848,-0.759765 -1.18164,-0.759765 -0.97004,0 -1.68026,0.783478 -2.24805,1.705078 -0.10842,0.179964 -0.20799,0.361573 -0.30469,0.544922 l -2.179685,0.472656 c -0.1656,0.024 -0.330445,0.04883 -0.496093,0.04883 -0.30768,0 -0.567728,-0.09713 -0.638672,-0.519531 -0.09456,-0.4944 -0.190055,-1.161284 -0.734375,-1.396484 -0.04732,-0.024 -0.09375,-0.04722 -0.09375,-0.0957 -0.07104,-0.6144 -0.686746,-0.759765 -1.183594,-0.759765 -0.970032,0 -1.680255,0.783478 -2.248047,1.705078 -0.532437,0.883794 -0.918551,1.81091 -1.175781,2.761719 l -0.69336,1.421875 c -0.73344,1.536 -1.300546,2.884184 -2.365234,4.208984 -0.1656,0.192 -0.332172,0.384237 -0.521484,0.523437 -0.09456,-0.048 -0.188891,-0.432006 -0.212891,-0.566406 -0.04732,-0.288 -0.07031,-0.614675 -0.07031,-0.921875 0,-2.3904 0.99414,-4.68403 0.99414,-6.71875 0,-1.3728 -0.474046,-2.578125 -1.585937,-2.578125 -1.324915,0.04704 -2.270513,1.349325 -2.791016,2.578125 -0.59148,1.2768 -0.970661,2.625247 -1.183594,3.998047 -0.1656,0.8496 -0.425687,2.107422 -0.851562,2.107422 -0.141936,0 -0.260861,-0.143109 -0.355469,-0.287109 -0.496843,-1.0416 -0.568138,-1.631966 -0.591797,-2.884766 0,-1.1856 0.142314,-2.391466 0.378906,-3.572266 0.02366,-0.096 0.07118,-0.191109 0.189454,-0.287109 1.916395,-1.68 3.832979,-3.33737 5.607422,-5.6562499 0.993691,-1.3728 1.538397,-2.2940469 1.609374,-3.9980469 0,-1.2288 -0.781893,-2.2949219 -1.964843,-2.2949219 -0.780754,0 -1.632908,0.4334 -2.248047,0.875 -1.845418,1.3008001 -3.193851,3.5470969 -3.97461,5.6542967 -0.699745,1.85545 -1.35734,4.023521 -1.705078,6.212891 -0.05409,0.03546 -0.10716,0.06745 -0.162109,0.115234 -0.757094,0.5904 -1.443455,1.559397 -2.058594,2.341797 -1.277597,1.632 -2.555416,3.524244 -4.353515,4.589844 -0.09466,0.04752 -0.166837,0.0957 -0.285157,0.0957 l -0.02344,-0.0957 c 0,-0.048 0.02517,-0.143406 0.04883,-0.191406 0.07099,-0.384001 0.211532,-0.711207 0.353516,-1.066407 0.44952,-0.9696 0.96951,-1.939728 1.513672,-2.861328 0.709776,-1.2288 1.207654,-2.034309 1.349609,-3.287109 0,-1.0416 -1.017146,-1.65625 -2.105469,-1.65625 -1.064664,0 -1.538408,0.09653 -2.65039,0.144531 l -0.425782,-0.02344 c 1.041005,-1.728001 1.585494,-2.909963 1.632813,-4.8515629 0,-1.2768 -0.638641,-2.0100312 -1.892578,-2.0820312 -0.520503,0 -1.017494,0.1428468 -1.44336,0.4980468 -1.632485,1.3728 -2.507812,3.2154813 -2.507812,5.4882813 0,0.7824 0.165695,1.584819 0.615234,2.199219 0.362734,0.542739 0.915216,0.838439 1.521485,0.99414 -1.355093,1.693888 -3.615938,4.025246 -5.425782,4.81836 -0.236592,0.096 -0.497339,0.191406 -0.78125,0.191406 -0.59148,-0.04704 -0.873891,-0.144538 -0.992187,-0.710938 -0.04732,-0.24 -0.07227,-0.478584 -0.07227,-0.708984 0,-0.24 0.02322,-0.499175 0.04687,-0.734375 0.02366,-0.144 0.09634,-0.241062 0.238281,-0.289062 2.034692,-0.849601 4.234375,-2.414255 4.234375,-4.802735 -0.02366,-1.0176 -0.590741,-1.703125 -1.537109,-1.703125 -0.567821,0 -1.231894,0.335975 -1.705078,0.734375 -1.6592,1.211832 -2.980953,3.163881 -3.451172,5.244141 l -0.59375,1.216797 c -0.733435,1.536 -1.30057,2.884184 -2.365234,4.208984 -0.1656,0.192 -0.33223,0.384237 -0.521485,0.523437 -0.09466,-0.048 -0.189226,-0.432006 -0.21289,-0.566406 -0.04732,-0.288 -0.07031,-0.614675 -0.07031,-0.921875 0,-2.3904 0.994141,-4.68403 0.994141,-6.71875 0,-1.3728 -0.473955,-2.578125 -1.585938,-2.578125 -1.324915,0.04704 -2.270513,1.349325 -2.791015,2.578125 -0.59148,1.2768 -0.970661,2.625247 -1.183594,3.998047 -0.1656,0.8496 -0.425687,2.107422 -0.851563,2.107422 -0.141936,0 -0.26086,-0.143109 -0.355468,-0.287109 -0.496844,-1.0416 -0.568138,-1.631966 -0.591797,-2.884766 0,-1.1856 0.142314,-2.391466 0.378906,-3.572266 0.02366,-0.096 0.07118,-0.191109 0.189453,-0.287109 1.916395,-1.68 3.832979,-3.33737 5.607422,-5.6562499 0.993686,-1.3728 1.538397,-2.2940469 1.609375,-3.9980469 0,-1.2288 -0.781884,-2.2949219 -1.964844,-2.2949219 -0.780753,0 -1.632907,0.4334 -2.248047,0.875 -1.024465,0.7221264 -1.889615,1.7380557 -2.595703,2.8574219 -1.249492,0.1957594 -2.891096,0.2597657 -4.548828,0.2597657 -2.294944,0 -4.589811,-0.096531 -5.84375,-0.1445313 -0.04732,0 -0.09353,6.45e-4 -0.117187,-0.046875 0.283911,-0.8736 0.685726,-1.60935 0.875,-2.34375 0.04732,-0.144 0.09375,-0.3348469 0.09375,-0.4980469 -0.09464,-0.7584 -0.42499,-1.1816406 -1.134766,-1.1816406 -0.496843,0 -0.947223,0.3354469 -1.160156,0.8730469 -0.09464,0.288 -0.211782,0.5918 -0.330078,0.875 -0.30757,0.7824 -0.616924,1.5588343 -0.853516,2.3652343 -0.02366,0.1440001 -0.09437,0.1922344 -0.236328,0.2402344 -1.727122,0.384 -3.334301,1.3738594 -3.925781,3.0058593 -0.07099,0.144 -0.0957,0.286516 -0.0957,0.478516 0.04732,0.5184 0.189359,0.783203 0.615234,0.783203 0.141936,0 0.402344,-0.04693 0.402344,-0.191407 l -0.02344,-0.09766 c 0,-0.048 0.04641,-0.09458 0.09375,-0.142578 0.567821,-0.7104 1.255247,-1.253909 2.154297,-1.5371091 0.118296,-0.04752 0.234998,-0.095703 0.376953,-0.095703 l 0.02539,0.048828 -0.02539,0.095703 c -0.398057,1.92089 -0.752448,4.077075 -0.986328,6.222656 l -2.230469,0.482422 c -0.1656,0.024 -0.336834,0.09731 -0.496093,0.04883 -0.262513,-0.096 -0.567695,-0.09713 -0.638672,-0.519531 -0.09466,-0.4944 -0.190204,-1.161284 -0.734375,-1.396484 -0.04732,-0.024 -0.09375,-0.04722 -0.09375,-0.0957 -0.07099,-0.6144 -0.686751,-0.759765 -1.183594,-0.759765 -0.970027,0 -1.680226,0.783478 -2.248047,1.705078 -0.122846,0.203915 -0.237896,0.408952 -0.345703,0.617187 -0.03478,0.02569 -0.06851,0.04378 -0.103516,0.07422 -0.757094,0.5904 -1.443454,1.559397 -2.058593,2.341797 -1.277597,1.632 -2.555412,3.524244 -4.353516,4.589844 -0.09466,0.04752 -0.164883,0.0957 -0.283203,0.0957 l -0.02344,-0.0957 c 0,-0.048 0.02322,-0.143406 0.04687,-0.191406 0.07099,-0.384001 0.213533,-0.711207 0.355469,-1.066407 0.44952,-0.9696 0.96951,-1.939728 1.513672,-2.861328 0.709776,-1.2288 1.205701,-2.034309 1.347656,-3.287109 0,-1.0416 -1.017145,-1.65625 -2.105469,-1.65625 -1.064664,0 -1.536455,0.09653 -2.648437,0.144531 l -0.425781,-0.02344 c 1.041004,-1.728001 1.583541,-2.909963 1.630859,-4.8515634 0,-1.2768 -0.638641,-2.0100312 -1.892578,-2.0820312 -0.520503,0 -1.017494,0.1428468 -1.443359,0.4980468 -1.632485,1.3728 -2.507813,3.2154818 -2.507813,5.4882818 0,0.7824 0.165695,1.584819 0.615234,2.199219 0.205965,0.308174 0.473719,0.53944 0.775391,0.71289 -0.617706,0.114068 -1.25631,0.247769 -1.720703,0.382813 l -0.166016,0.02344 h -0.07031 l 0.04687,-0.335937 c 0.04732,-0.432 0.09375,-0.873019 0.09375,-1.324219 v -0.191406 c -0.09466,-1.2528 -1.015773,-3.288203 -2.458985,-3.408203 -0.04732,0 -0.07204,1.65e-4 -0.0957,-0.04687 l 0.0957,-0.144532 c 0.851732,-1.2048 1.583985,-3.1244894 1.583985,-4.8496094 0,-0.6384 -0.09526,-1.2770187 -0.355469,-1.8242188 -0.212928,-0.432 -0.519669,-0.8247187 -0.921875,-1.1367187 -0.354912,-0.24 -0.732781,-0.3847656 -1.111328,-0.3847656 -0.28392,0 -0.569384,0.048234 -0.876953,0.2402343 -0.3312483,0.1920001 -0.614749,0.4325375 -0.8750002,0.7109376 -0.6624577,0.7824 -1.1587839,1.6305718 -1.5136719,2.5761718 -0.4968432,1.3008 -0.8521854,2.650075 -0.9941407,4.0468758 -0.118272,1.2288 -0.2354221,2.439168 -0.3300781,3.667968 -0.047318,0.7344 -0.1429457,1.468228 -0.3085937,2.173828 -0.047318,0.192001 -0.071181,0.382882 -0.1894532,0.613282 -0.070992,-0.5184 -0.09375,-0.99355 -0.09375,-1.46875 v -0.238282 c 0,-1.512 0.2126268,-2.981809 0.4492188,-4.474609 C 6.50267,9.3867031 6.8096601,7.8228438 6.9042969,6.2148438 V 5.9746094 c 0,-1.2288 -0.6141367,-2.6018 -1.7734375,-3.125 -0.236592,-0.096 -0.4743455,-0.1914063 -0.7109375,-0.1914063 z M 4.2304688,3.8125 c 0.070992,0 0.1185091,0.048051 0.1894531,0.1445312 0.141936,0.1920001 0.1894531,0.6861157 0.1894531,1.2285157 0,0.8976 -0.1421251,1.987425 -0.1894531,2.390625 L 4.3496094,7.8203125 H 4.3027344 C 3.8768784,7.2059125 3.4023438,6.5915563 3.4023438,5.7851562 V 5.6894531 C 3.426003,5.1902531 3.5448365,4.6972938 3.7578125,4.2460938 3.8288045,4.1020937 3.9246487,4.0042031 4.0429688,3.9082031 4.1139608,3.8602031 4.1831407,3.8125 4.2304688,3.8125 Z M 55.240234,5.8574219 c 0.236592,0 0.259766,0.3837093 0.259766,0.6621093 -0.07099,0.7824001 -0.09436,0.9932875 -0.449219,1.6796876 -1.230278,2.4624002 -2.981596,4.0952932 -4.945312,5.9394532 -0.02366,0.02352 -0.04641,0.04687 -0.09375,0.04687 l -0.02344,-0.04687 0.02344,-0.04687 c 0.662457,-2.5536 1.514137,-5.2765545 3.548828,-7.2402345 0.378528,-0.384 0.946252,-0.9221406 1.679687,-0.9941406 z m 32.554688,0 c 0.236592,0 0.259765,0.3837093 0.259766,0.6621093 -0.07099,0.7824001 -0.09435,0.9932875 -0.449219,1.6796876 -1.230279,2.4624002 -2.979644,4.0952932 -4.94336,5.9394532 -0.02366,0.02352 -0.04837,0.04687 -0.0957,0.04687 l -0.02344,-0.04687 0.02344,-0.04687 c 0.662458,-2.5536 1.514137,-5.2765545 3.548828,-7.2402345 0.378528,-0.384 0.946253,-0.9221406 1.679688,-0.9941406 z m 35.796878,0.328125 c 0.071,0 0.095,0.047571 0.16601,0.1445312 0.21312,0.384 0.23633,0.6132531 0.23633,1.0644531 0,3.0047998 -3.33645,5.6079198 -6.19922,7.1933598 v 0.02344 h -0.0469 l -0.0234,-0.04687 0.0234,-0.09766 c 0.7571,-2.4864 1.96405,-5.2277264 3.92773,-7.1914064 0.63879,-0.5904 1.08792,-0.9458437 1.91602,-1.0898437 z M 49.509766,8.5117188 c -0.260526,0.5202922 -0.489109,1.0487294 -0.681641,1.5683592 -0.688493,1.825612 -1.33535,3.953999 -1.6875,6.107422 -0.03649,0.0098 -0.07949,0.01913 -0.109375,0.01953 -0.59148,0.288 -1.136634,0.897847 -1.5625,1.373047 -1.727122,1.824 -3.027227,3.666348 -4.707031,5.298828 -0.709776,0.7104 -1.326404,1.163238 -2.34375,1.398438 -0.165615,0 -0.331366,-0.3371 -0.402344,-0.6875 -0.354888,-1.0416 -0.376953,-2.318603 -0.376953,-3.408203 0,-2.0832 0.258836,-4.022817 0.566406,-6.222657 0.236592,-1.4208 0.473458,-2.86045 0.804688,-4.2812496 0.09464,-0.384 0.02468,-0.3828125 0.308593,-0.3828125 h 0.212891 c 2.429404,-0.074117 6.954919,-0.1546408 9.978516,-0.7832031 z M 19.017578,9.5253906 c 0.09466,0.192 0.119141,0.3853969 0.119141,0.5917974 v 0.142578 c 0,1.3728 -0.592294,2.818637 -1.373047,4.023437 -0.04732,0.048 -0.118283,0.0957 -0.212891,0.0957 v 0.04297 C 16.911983,14.373875 17.055353,14.1816 16.984375,13.5 c 0,-1.632 0.63731,-3.005009 2.033203,-3.9746094 z m 52.027344,0 c 0.09466,0.192 0.117187,0.3853969 0.117187,0.5917974 v 0.142578 c 0,1.3728 -0.59034,2.818637 -1.371093,4.023437 -0.04732,0.048 -0.118235,0.0957 -0.212891,0.0957 v 0.04297 C 68.939327,14.373875 69.080743,14.1816 69.009766,13.5 c 0,-1.632 0.639263,-3.005009 2.035156,-3.9746094 z m 43.177738,5.2480474 c 0.42576,0 0.59193,0.287178 0.78125,0.517578 0.0237,0.04752 0.0234,0.09653 0.0234,0.144531 v 0.191406 c -0.071,0.5904 -2.12984,2.697275 -2.86328,3.546875 -0.35472,0.432 -0.75751,0.782644 -1.20703,1.089844 -0.42576,0.288 -0.66181,0.384469 -1.11133,0.480469 v -0.0059 c -0.071,0 -0.0937,-0.04693 -0.0937,-0.191406 0,-1.8912 0.85021,-3.43245 2.2461,-4.78125 0.42576,-0.432 1.3019,-0.992187 2.22461,-0.992187 z m -49.707035,0.359374 c 0,1.161601 -1.230923,1.9626 -2.224609,2.625 -0.02366,0.024 -0.02299,0.02344 -0.07031,0.02344 h -0.04883 c 0.567821,-1.0896 1.302745,-1.986037 2.34375,-2.648438 z M 30.375,16.361328 c 0.354864,0.7584 0.732422,0.897584 0.732422,1.583984 0,1.300801 -0.212538,2.769544 -0.875,3.902344 -0.260256,0.432 -0.568053,0.806675 -1.017578,0.921875 V 22.75 h -0.140625 c -0.354864,0 -0.355469,-0.710944 -0.355469,-1.277344 0,-1.536 0.331037,-2.979325 1.064453,-4.328125 0.118272,-0.24 0.260181,-0.432272 0.425781,-0.638672 0.02366,-0.048 0.07141,-0.09653 0.166016,-0.144531 z m 65.251953,0 c 0.35472,0.7584 0.732422,0.897584 0.732422,1.583984 0,1.300801 -0.212744,2.769544 -0.875,3.902344 -0.26016,0.432 -0.568058,0.806675 -1.017578,0.921875 V 22.75 h -0.142578 c -0.35472,0 -0.353516,-0.710944 -0.353516,-1.277344 0,-1.536 0.330965,-2.979325 1.064453,-4.328125 0.11808,-0.24 0.260181,-0.432272 0.425782,-0.638672 0.02366,-0.048 0.07146,-0.09653 0.166015,-0.144531 z m 7.878907,0 c 0.35472,0.7584 0.73242,0.897584 0.73242,1.583984 0,1.300801 -0.21274,2.769544 -0.875,3.902344 -0.26016,0.432 -0.56806,0.806675 -1.01758,0.921875 V 22.75 h -0.14258 c -0.35472,0 -0.35351,-0.710944 -0.35351,-1.277344 0,-1.536 0.33101,-2.979325 1.06445,-4.328125 0.11808,-0.24 0.26018,-0.432272 0.42578,-0.638672 0.0237,-0.048 0.0715,-0.09653 0.16602,-0.144531 z m -92.248048,2.40625 v 0.04687 l -0.02344,0.0957 c -0.378528,1.4208 -0.946474,2.769513 -1.65625,4.070313 -0.402192,0.7104 -0.946474,1.27844 -1.65625,1.68164 L 7.6855439,24.80468 c -0.212928,0.096 -0.4973396,0.144531 -0.78125,0.144531 v 0.04883 c -0.946368,0 -2.0820313,-0.54235 -2.0820313,-1.46875 0,-0.096 -2.217e-4,-0.193063 0.023437,-0.289063 0.070992,-0.288 0.2133063,-0.54264 0.3789063,-0.80664 0.354912,-0.5184 0.803938,-0.945581 1.3007812,-1.300782 0.402192,-0.288 0.8280407,-0.518374 1.2539063,-0.734374 1.0883232,-0.566401 2.2005176,-1.065585 3.3125006,-1.583985 z"
       style="font-style:normal;font-variant:normal;font-weight:normal;font-stretch:normal;font-size:0.49290025px;line-height:0;font-family:mama;-inkscape-font-specification:'mama, Normal';font-variant-ligatures:normal;font-variant-caps:normal;font-variant-numeric:normal;text-align:start;letter-spacing:0px;word-spacing:0px;writing-mode:lr-tb;text-anchor:start;fill:#5f0800;fill-opacity:0.94117647;stroke:none;stroke-width:0.9858005"
       inkscape:connector-curvature="0" />
    <rect
       y="284.29553"
       x="-0.83333331"
       height="0.59896266"
       width="2.6711307"
       id="rect14"
       style="opacity:1;fill:#ffffff;fill-opacity:0;stroke:none;stroke-width:0.02083333;stroke-opacity:0.85340313" />
  </g>
</svg>
